<?xml version="1.0" encoding="utf-8"?>
<!-- Generator: Adobe Illustrator 17.0.0, SVG Export Plug-In . SVG Version: 6.00 Build 0)  -->
<!DOCTYPE svg PUBLIC "-//W3C//DTD SVG 1.1//EN" "http://www.w3.org/Graphics/SVG/1.1/DTD/svg11.dtd">
<svg version="1.1" id="Layer_1" xmlns="http://www.w3.org/2000/svg" xmlns:xlink="http://www.w3.org/1999/xlink" x="0px" y="0px"
	 width="35px" height="35px" viewBox="0 0 35 35" enable-background="new 0 0 35 35" xml:space="preserve">
<g>
	<path d="M8.19,0.265c0,0.481,0,0.907,0,1.334c0,2.811-0.001,5.622,0,8.433c0.001,1.636,1.168,2.887,2.804,2.897
		c4.337,0.025,8.674,0.023,13.011-0.001c1.525-0.009,2.643-1.12,2.769-2.636c0.015-0.186,0.02-0.374,0.02-0.561
		c0.001-2.985,0.001-5.97,0.001-8.955c0-0.157,0-0.313,0-0.509c1.153,0,2.261-0.005,3.369,0.008
		c0.099,0.001,0.212,0.101,0.292,0.181c1.459,1.456,2.917,2.914,4.363,4.383c0.106,0.107,0.176,0.3,0.177,0.453
		c0.007,8.54,0.006,17.081,0.001,25.621c-0.001,2.538-1.792,4.33-4.324,4.33c-8.781,0.002-17.562,0.002-26.344,0
		C1.783,35.242,0,33.462,0,30.93C0,22.096,0,13.261,0.001,4.426c0-2.057,1.398-3.753,3.415-4.11c0.43-0.076,0.88-0.046,1.321-0.049
		C5.872,0.261,7.008,0.265,8.19,0.265z M18.383,19.491c-3.493,0-6.986-0.002-10.479,0.001c-1.881,0.001-3.036,1.153-3.036,3.022
		c-0.001,3.185,0,6.371,0,9.556c0,0.134-0.006,0.269,0.009,0.401c0.05,0.428,0.392,0.729,0.818,0.729
		c0.428,0,0.773-0.298,0.824-0.723c0.016-0.132,0.01-0.267,0.01-0.401c0-3.145,0-6.29,0-9.435c0-1.099,0.377-1.48,1.463-1.48
		c6.986,0,13.973,0,20.959,0c0.147,0,0.296,0.009,0.441-0.009c0.398-0.047,0.706-0.387,0.727-0.787
		c0.021-0.398-0.255-0.764-0.657-0.84c-0.182-0.034-0.373-0.032-0.559-0.032C25.396,19.491,21.889,19.491,18.383,19.491z"/>
	<path d="M20.01,6.445c0-1.257-0.001-1.63,0-2.886c0.001-0.592,0.178-0.778,0.754-0.779c1.15-0.003,2.299-0.003,3.449,0
		c0.556,0.001,0.759,0.203,0.759,0.74c-0.002,2.513-0.004,4.143-0.007,6.656c-0.001,0.7-0.149,0.85-0.841,0.85
		c-1.136,0.001-2.273,0.002-3.409,0.002c-0.514,0-0.704-0.181-0.705-0.694C20.007,9.038,20.01,7.741,20.01,6.445z"/>
	<rect x="4.5" y="-0.5" width="23" height="1"/>
</g>
</svg>
