<?xml version="1.0" encoding="utf-8"?>
<!-- Generator: Adobe Illustrator 17.0.0, SVG Export Plug-In . SVG Version: 6.00 Build 0)  -->
<!DOCTYPE svg PUBLIC "-//W3C//DTD SVG 1.1//EN" "http://www.w3.org/Graphics/SVG/1.1/DTD/svg11.dtd">
<svg version="1.1" id="Layer_1" xmlns="http://www.w3.org/2000/svg" xmlns:xlink="http://www.w3.org/1999/xlink" x="0px" y="0px"
	 width="13px" height="13px" viewBox="0 0 13 13" enable-background="new 0 0 13 13" xml:space="preserve">
<g>
	<path d="M-6.912,5.381c-0.199,0.42-0.973,1.857-1.526,1.857s-1.327-1.437-1.526-1.857c-0.618-1.216-1.127-2.874-1.127-4.245
		c0-1.636,0.773-3.383,2.653-3.383s2.654,1.746,2.654,3.383C-5.784,2.507-6.293,4.165-6.912,5.381z M-8.438,13.872
		c-1.348,0-2.454-1.105-2.454-2.456c0-1.348,1.105-2.454,2.454-2.454s2.455,1.105,2.455,2.454
		C-5.983,12.766-7.09,13.872-8.438,13.872z"/>
</g>
<g>
	<rect x="5" y="9" width="3" height="4"/>
	<polygon points="8.125,8 4.875,8 4.225,0 8.775,0 	"/>
</g>
</svg>
